<svg width="18" height="18" viewBox="0 0 18 18" fill="none" xmlns="http://www.w3.org/2000/svg">
<path d="M17.9914 14.1962C18.0296 14.4884 17.9405 14.7425 17.7246 14.9584L15.1903 17.4737C15.076 17.6007 14.9267 17.7088 14.7425 17.7976C14.5583 17.8866 14.3773 17.9437 14.1995 17.9691C14.1868 17.9691 14.1486 17.9724 14.0851 17.9787C14.0216 17.985 13.9391 17.9883 13.8374 17.9883C13.596 17.9883 13.2054 17.947 12.6655 17.8644C12.1256 17.7818 11.465 17.5785 10.6838 17.2546C9.9024 16.9307 9.01635 16.4447 8.02551 15.7969C7.03466 15.1491 5.98023 14.2598 4.86232 13.1291C3.97307 12.2526 3.23626 11.4142 2.6519 10.6139C2.06754 9.8135 1.5975 9.07352 1.2418 8.39388C0.886073 7.71424 0.619299 7.09812 0.441449 6.54551C0.263599 5.99291 0.142915 5.51652 0.0793973 5.11636C0.0158795 4.7162 -0.00952767 4.40178 0.00317589 4.17312C0.0158795 3.94446 0.0222312 3.81742 0.0222312 3.79201C0.0476384 3.61416 0.104804 3.43314 0.193729 3.24894C0.282654 3.06473 0.390635 2.91547 0.51767 2.80114L3.05203 0.266775C3.22988 0.0889249 3.43314 0 3.6618 0C3.82695 0 3.97304 0.0476384 4.10007 0.142915C4.22711 0.238192 4.33509 0.3557 4.42402 0.495439L6.46294 4.36367C6.57727 4.56693 6.60903 4.78924 6.55821 5.03061C6.5074 5.27198 6.39942 5.47524 6.23427 5.64038L5.30056 6.57409C5.27515 6.5995 5.25292 6.64079 5.23387 6.69795C5.21481 6.75512 5.20528 6.80276 5.20528 6.84087C5.2561 7.10764 5.37043 7.41253 5.54828 7.75553C5.70072 8.06041 5.93574 8.43199 6.25333 8.87026C6.57092 9.30854 7.02189 9.81347 7.60626 10.3851C8.17792 10.9696 8.68606 11.4236 9.13068 11.7477C9.57522 12.0715 9.94692 12.3098 10.2455 12.4622C10.544 12.6146 10.7727 12.7067 10.9314 12.7384L11.1695 12.7861C11.195 12.7861 11.2363 12.7765 11.2934 12.7575C11.3506 12.7384 11.3919 12.7162 11.4173 12.6908L12.5034 11.5856C12.7322 11.3823 12.9989 11.2807 13.3038 11.2807C13.5198 11.2807 13.6912 11.3188 13.8183 11.395H13.8373L17.5149 13.5673C17.7818 13.7326 17.9406 13.9422 17.9914 14.1962Z" fill="#3166BF"/>
</svg>
