<svg width="20" height="16" viewBox="0 0 20 16" fill="none" xmlns="http://www.w3.org/2000/svg">
<path d="M9.99992 3.25488L2.86701 9.13521C2.86701 9.14351 2.86492 9.15572 2.86075 9.17237C2.85666 9.18888 2.85449 9.20087 2.85449 9.20938V15.1638C2.85449 15.3788 2.93309 15.5651 3.09025 15.722C3.24737 15.879 3.43342 15.958 3.64846 15.958H8.4119V11.1943H11.588V15.9582H16.3514C16.5664 15.9582 16.7527 15.8794 16.9096 15.722C17.0668 15.5653 17.1456 15.3789 17.1456 15.1638V9.20938C17.1456 9.17636 17.1411 9.15142 17.1331 9.13521L9.99992 3.25488Z" fill="#3166BF"/>
<path d="M19.8621 7.79541L17.1455 5.53765V0.476276C17.1455 0.360569 17.1083 0.265413 17.0336 0.190939C16.9596 0.116553 16.8644 0.0793593 16.7485 0.0793593H14.3667C14.2509 0.0793593 14.1558 0.116553 14.0812 0.190939C14.0069 0.265413 13.9697 0.360612 13.9697 0.476276V2.89528L10.9429 0.364523C10.6786 0.149488 10.3642 0.0419922 10.0003 0.0419922C9.63641 0.0419922 9.32214 0.149488 9.05752 0.364523L0.137848 7.79541C0.0551625 7.86145 0.00984397 7.95035 0.00141463 8.06202C-0.00697126 8.1736 0.0219231 8.27106 0.0881847 8.3537L0.857297 9.27172C0.923558 9.3461 1.01028 9.39159 1.11782 9.40824C1.21711 9.41658 1.31639 9.38755 1.41568 9.32142L10 2.16336L18.5845 9.32138C18.6508 9.37908 18.7375 9.40789 18.845 9.40789H18.8823C18.9897 9.39155 19.0762 9.34576 19.1428 9.27154L19.912 8.35366C19.9782 8.27084 20.0071 8.17356 19.9985 8.06185C19.9901 7.95048 19.9446 7.86158 19.8621 7.79541Z" fill="#3166BF"/>
</svg>
