<svg width="20" height="16" viewBox="0 0 20 16" fill="none" xmlns="http://www.w3.org/2000/svg">
<path d="M1.91961 4.9868C2.1726 5.16533 2.93523 5.69556 4.20753 6.57722C5.47986 7.45888 6.45456 8.13773 7.13165 8.61382C7.20604 8.66601 7.36409 8.77945 7.60587 8.95431C7.84769 9.12928 8.04861 9.27067 8.2085 9.37852C8.36849 9.48634 8.56192 9.60728 8.78896 9.74117C9.01592 9.87494 9.22987 9.97556 9.43076 10.0422C9.63168 10.1093 9.81768 10.1426 9.98878 10.1426H10H10.0113C10.1824 10.1426 10.3684 10.1093 10.5694 10.0422C10.7702 9.97556 10.9843 9.87482 11.2111 9.74117C11.438 9.60713 11.6314 9.4863 11.7914 9.37852C11.9514 9.27067 12.1522 9.12928 12.3941 8.95431C12.6358 8.7793 12.794 8.66601 12.8684 8.61382C13.5528 8.13773 15.2941 6.92861 18.0916 4.98657C18.6347 4.60726 19.0885 4.14959 19.453 3.61384C19.8178 3.07834 20 2.51656 20 1.92882C20 1.43768 19.8232 1.01726 19.4697 0.66759C19.1163 0.317842 18.6977 0.143066 18.2142 0.143066H1.78564C1.21276 0.143066 0.771892 0.336489 0.463112 0.723334C0.154371 1.11026 0 1.59389 0 2.1742C0 2.64294 0.204681 3.15089 0.613847 3.69773C1.02297 4.24462 1.45837 4.67435 1.91961 4.9868Z" fill="#3166BF"/>
<path d="M18.8838 6.1809C16.4435 7.83254 14.5906 9.11614 13.3259 10.0314C12.9018 10.3438 12.5578 10.5876 12.2936 10.7624C12.0294 10.9372 11.678 11.1158 11.2389 11.298C10.8 11.4805 10.3909 11.5714 10.0114 11.5714H10H9.9888C9.60935 11.5714 9.20007 11.4805 8.76115 11.298C8.32224 11.1158 7.97061 10.9372 7.70648 10.7624C7.44242 10.5876 7.09826 10.3438 6.6742 10.0314C5.66968 9.29486 3.82075 8.01119 1.12735 6.1809C0.70313 5.89835 0.327387 5.57449 0 5.20996V14.0713C0 14.5627 0.174776 14.9829 0.524523 15.3326C0.874192 15.6824 1.29465 15.8573 1.78575 15.8573H18.2144C18.7054 15.8573 19.1258 15.6824 19.4755 15.3326C19.8253 14.9828 20 14.5627 20 14.0713V5.20996C19.68 5.56694 19.3081 5.89081 18.8838 6.1809Z" fill="#2D64B9"/>
</svg>
