<svg width="80" height="64" viewBox="0 0 80 64" fill="none" xmlns="http://www.w3.org/2000/svg">
<g filter="url(#filter0_d)">
<path d="M33.0398 12C34.8263 12 36.0007 13.5955 35.9087 15.3797L35.8835 15.8688C35.7733 18.0045 34.0057 19.5869 32.2878 20.8605C31.3443 21.5601 30.6074 22.5208 30.077 23.7428C29.3628 25.3884 30.8146 27.0089 32.6086 27.0089C34.2929 27.0089 35.6398 28.4085 35.5752 30.0915L35.3551 35.8301C35.1801 40.392 31.431 44 26.8658 44H25.7605C20.3889 44 16.0526 39.6114 16.117 34.2402L16.1862 28.472C16.2793 22.0846 19.0262 17.3805 24.4268 14.3599C27.2512 12.7866 30.1222 12 33.0398 12ZM60.9738 12C62.7604 12 63.9347 13.5955 63.8427 15.3797L63.8175 15.8688C63.7073 18.0045 61.9397 19.5869 60.2219 20.8605C59.2784 21.5601 58.5415 22.5208 58.0111 23.7428C57.2968 25.3884 58.7487 27.0089 60.5426 27.0089C62.2269 27.0089 63.5739 28.4085 63.5093 30.0915L63.2892 35.8301C63.1142 40.392 59.3651 44 54.7998 44H53.6945C48.323 44 43.9867 39.6114 44.0511 34.2402L44.1203 28.472C44.2134 22.0846 46.9602 17.3805 52.3608 14.3599C55.1853 12.7866 58.0563 12 60.9738 12Z" fill="url(#paint0_linear)"/>
</g>
<defs>
<filter id="filter0_d" x="0.116211" y="0" width="79.7314" height="64" filterUnits="userSpaceOnUse" color-interpolation-filters="sRGB">
<feFlood flood-opacity="0" result="BackgroundImageFix"/>
<feColorMatrix in="SourceAlpha" type="matrix" values="0 0 0 0 0 0 0 0 0 0 0 0 0 0 0 0 0 0 127 0"/>
<feOffset dy="4"/>
<feGaussianBlur stdDeviation="8"/>
<feColorMatrix type="matrix" values="0 0 0 0 0.529167 0 0 0 0 0.346086 0 0 0 0 0.079375 0 0 0 0.2 0"/>
<feBlend mode="normal" in2="BackgroundImageFix" result="effect1_dropShadow"/>
<feBlend mode="normal" in="SourceGraphic" in2="effect1_dropShadow" result="shape"/>
</filter>
<linearGradient id="paint0_linear" x1="-66.7164" y1="28.9005" x2="-27.935" y2="157.946" gradientUnits="userSpaceOnUse">
<stop stop-color="#EB9A24"/>
<stop offset="1" stop-color="#FFC700"/>
</linearGradient>
</defs>
</svg>
