<svg width="21" height="20" viewBox="0 0 21 20" fill="none" xmlns="http://www.w3.org/2000/svg">
<path d="M14.4481 0H6.36436C3.07904 0 0.40625 2.67279 0.40625 5.95811V14.0419C0.40625 17.3272 3.07904 20 6.36436 20H14.4481C17.7335 20 20.4062 17.3272 20.4062 14.0419V5.95811C20.4062 2.67279 17.7334 0 14.4481 0ZM18.3943 14.0419C18.3943 16.2213 16.6275 17.988 14.4481 17.988H6.36436C4.185 17.988 2.41825 16.2213 2.41825 14.0419V5.95811C2.41825 3.77871 4.185 2.012 6.36436 2.012H14.4481C16.6275 2.012 18.3943 3.77871 18.3943 5.95811V14.0419Z" fill="#3166BF"/>
<path d="M10.4061 4.82715C7.55387 4.82715 5.2334 7.14762 5.2334 9.99982C5.2334 12.852 7.55387 15.1725 10.4061 15.1725C13.2583 15.1725 15.5788 12.8521 15.5788 9.99982C15.5788 7.14759 13.2583 4.82715 10.4061 4.82715ZM10.4061 13.1606C8.66048 13.1606 7.2454 11.7455 7.2454 9.99986C7.2454 8.25423 8.66052 6.83915 10.4061 6.83915C12.1517 6.83915 13.5668 8.25423 13.5668 9.99986C13.5668 11.7455 12.1517 13.1606 10.4061 13.1606Z" fill="#3166BF"/>
<path d="M15.5891 6.10593C16.2736 6.10593 16.8286 5.55099 16.8286 4.86644C16.8286 4.18189 16.2736 3.62695 15.5891 3.62695C14.9045 3.62695 14.3496 4.18189 14.3496 4.86644C14.3496 5.55099 14.9045 6.10593 15.5891 6.10593Z" fill="#3166BF"/>
</svg>
